<svg id="Capa_1" enable-background="new 0 0 512 512" height="512" viewBox="0 0 512 512" width="512" xmlns="http://www.w3.org/2000/svg"><g><path d="m484.954 231.608h-9.912l-55.713-155.685h49.293c13.382 0 24.269-10.887 24.269-24.27s-10.887-24.27-24.269-24.27h-167.042c-8.703-16.278-25.866-27.383-45.58-27.383s-36.877 11.105-45.58 27.384h-167.042c-13.382 0-24.269 10.887-24.269 24.27s10.887 24.27 24.269 24.27h49.293l-55.713 155.684h-9.912c-7.381 0-13.386 6.005-13.386 13.386 0 16.27 4.467 32.171 12.918 45.984 2.157 3.526 6.765 4.637 10.293 2.479 3.527-2.158 4.637-6.766 2.479-10.293-6.737-11.011-10.422-23.627-10.7-36.583h149.301c-.417 19.549-8.861 38.389-23.101 51.775-14.575 13.701-33.321 19.889-52.966 19.889-14.51 0-28.533-4.232-40.552-12.238-3.44-2.292-8.088-1.361-10.381 2.08-2.292 3.441-1.361 8.089 2.08 10.381 14.486 9.65 31.379 14.75 48.853 14.75 19.763 0 38.676-5.185 54.779-16.954 15.47-11.306 27.071-27.599 32.579-45.96 2.46-8.199 3.699-16.752 3.699-25.311 0-7.381-6.005-13.386-13.386-13.386h-9.912l-55.711-155.684h96.489c4.832 9.038 12.274 16.477 21.31 21.31v287.653c-14.129 8.34-23.634 23.715-23.634 41.276v32.931h-100.6c-15.134 0-27.447 12.313-27.447 27.447v17.975c0 4.135 3.352 7.487 7.487 7.487h336.927c4.135 0 7.487-3.352 7.487-7.487v-17.975c0-15.135-12.313-27.447-27.447-27.447h-40.379c-4.135 0-7.487 3.352-7.487 7.487s3.352 7.487 7.487 7.487h40.379c6.878 0 12.474 5.595 12.474 12.474v10.488h-321.955v-10.488c0-6.878 5.596-12.474 12.474-12.474h222.114c4.135 0 7.487-3.352 7.487-7.487s-3.352-7.487-7.487-7.487h-25.708v-32.931c0-17.561-9.505-32.936-23.634-41.276v-287.654c9.036-4.833 16.478-12.272 21.31-21.31h96.488l-55.712 155.686h-9.912c-7.381 0-13.386 6.005-13.386 13.386 0 48.647 39.578 88.225 88.226 88.225 9.858.004 19.726-1.039 29.289-4.052 9.173-2.89 17.852-7.301 25.607-12.988 15.479-11.352 27.067-27.702 32.532-46.113 2.413-8.126 3.628-16.596 3.628-25.072.001-7.381-6.004-13.386-13.385-13.386zm-331.213 0h-100.88l50.44-140.952zm51.46-170.659h-161.823c-5.126 0-9.296-4.17-9.296-9.296s4.17-9.296 9.296-9.296h161.823c-.551 3.018-.854 6.122-.854 9.296s.303 6.278.854 9.296zm83.729 365.212v32.931h-65.86v-32.931c0-18.158 14.772-32.93 32.93-32.93s32.93 14.772 32.93 32.93zm-42.226-46.99v-276.707c3.017.551 6.123.842 9.296.842s6.28-.292 9.296-.842v276.707c-3.009-.594-6.116-.913-9.296-.913s-6.287.318-9.296.913zm9.296-290.838c-20.225 0-36.68-16.454-36.68-36.68 0-20.225 16.454-36.68 36.68-36.68s36.68 16.454 36.68 36.68-16.454 36.68-36.68 36.68zm50.799-27.384c.551-3.018.854-6.122.854-9.296s-.303-6.278-.854-9.296h161.823c5.126 0 9.296 4.17 9.296 9.296s-4.17 9.296-9.296 9.296zm101.9 29.707 50.44 140.952h-100.88zm1.416 227.59h-2.832c-39.861 0-72.388-32.003-73.235-71.665h149.302c-.847 39.662-33.374 71.665-73.235 71.665z"/></g></svg>